<svg xmlns="http://www.w3.org/2000/svg" width="58" height="58" viewBox="0 0 70 70" fill="none">
  <g id="Openlane 1" clip-path="url(#clip0_9353_93)">
    <path d="M26.864 5.673 2.726 46.136c-3.686 6.18 -0.668 11.236 6.703 11.236H57.716c6.321 0 10.016 -5.104 6.875 -10.644 -1.415 -2.496 -2.929 -4.944 -4.393 -7.417L45.772 14.977c-1.928 -3.25 -3.848 -6.498 -5.776 -9.747 -3.71 -5.736 -9.535 -5.603 -13.132 0.428z" fill="#144D45"/>
    <path d="M35.016 48.592c-1.016 -1.268 -1.903 -2.758 -1.896 -4.367 0.015 -6.728 11.221 -9.763 15.353 -13.526 1.619 -1.474 2.921 -3.438 3.343 -5.515l-5.564 -9.39c-1.4 -0.904 -2.913 -1.673 -4.418 -2.385 -3.449 -1.641 -10.601 -4.264 -16.182 -5.683l-1.05 1.767c0.414 0.207 0.829 0.405 1.243 0.611 2.573 1.276 5.159 2.576 7.348 4.445 0.846 0.721 1.652 1.576 1.953 2.631 0.424 1.504 -0.301 3.138 -1.423 4.255 -4.068 4.002 -11.342 5.142 -16.549 7.107 -1.781 0.675 -3.547 1.405 -5.265 2.227l-9.184 15.365c-3.686 6.181 -0.668 11.236 6.703 11.236h40.533a39.91 39.91 0 0 1 -4.378 -1.434c-4.06 -1.593 -7.867 -3.994 -10.561 -7.353z" fill="#0EF1C7"/>
  </g>
  <defs>
    <clipPath id="clip0_9353_93">
      <rect width="70" height="70" fill="white"/>
    </clipPath>
  </defs>
</svg>